<?xml version="1.0" standalone="no"?>
<!DOCTYPE svg PUBLIC "-//W3C//DTD SVG 20010904//EN"
 "http://www.w3.org/TR/2001/REC-SVG-20010904/DTD/svg10.dtd">
<svg version="1.0" xmlns="http://www.w3.org/2000/svg"
 width="64.000000pt" height="64.000000pt" viewBox="0 0 64.000000 64.000000"
 preserveAspectRatio="xMidYMid meet">

<g transform="translate(0.000000,64.000000) scale(0.100000,-0.100000)"
fill="#000000" stroke="none">
<path d="M203 580 c-4 -14 -14 -20 -32 -20 -36 0 -70 -26 -87 -66 -17 -40 -19
-289 -3 -347 17 -63 41 -72 214 -75 92 -2 168 1 193 8 68 18 76 39 80 214 3
92 0 165 -7 188 -14 44 -53 78 -91 78 -19 0 -29 6 -33 20 -3 11 -10 20 -17 20
-7 0 -14 -9 -17 -20 -5 -18 -14 -20 -83 -20 -69 0 -78 2 -83 20 -3 11 -10 20
-17 20 -7 0 -14 -9 -17 -20z m0 -80 c3 -11 10 -20 17 -20 7 0 14 9 17 20 5 18
14 20 83 20 69 0 78 -2 83 -20 3 -11 10 -20 17 -20 7 0 14 9 17 20 5 20 37 27
59 12 13 -8 34 -46 34 -61 0 -8 -68 -11 -210 -11 -142 0 -210 3 -210 11 0 15
21 53 34 61 22 15 54 8 59 -12z m325 -225 c-4 -169 7 -160 -208 -160 -215 0
-204 -9 -208 160 l-4 125 212 0 212 0 -4 -125z"/>
<path d="M194 326 c-10 -26 4 -48 28 -44 33 4 33 52 0 56 -13 2 -25 -3 -28
-12z"/>
<path d="M294 326 c-10 -26 4 -48 28 -44 33 4 33 52 0 56 -13 2 -25 -3 -28
-12z"/>
<path d="M394 326 c-10 -26 4 -48 28 -44 33 4 33 52 0 56 -13 2 -25 -3 -28
-12z"/>
<path d="M194 226 c-10 -26 4 -48 28 -44 17 2 23 10 23 28 0 18 -6 26 -23 28
-13 2 -25 -3 -28 -12z"/>
<path d="M294 226 c-10 -26 4 -48 28 -44 17 2 23 10 23 28 0 18 -6 26 -23 28
-13 2 -25 -3 -28 -12z"/>
<path d="M394 226 c-10 -26 4 -48 28 -44 17 2 23 10 23 28 0 18 -6 26 -23 28
-13 2 -25 -3 -28 -12z"/>
</g>
</svg>
