<?xml version="1.0" standalone="no"?>
<!DOCTYPE svg PUBLIC "-//W3C//DTD SVG 20010904//EN"
 "http://www.w3.org/TR/2001/REC-SVG-20010904/DTD/svg10.dtd">
<svg version="1.0" xmlns="http://www.w3.org/2000/svg"
 width="64.000000pt" height="64.000000pt" viewBox="0 0 64.000000 64.000000"
 preserveAspectRatio="xMidYMid meet">

<g transform="translate(0.000000,64.000000) scale(0.100000,-0.100000)"
fill="#000000" stroke="none">
<path d="M239 630 c-9 -5 -20 -25 -23 -44 -9 -50 -27 -61 -71 -45 -26 10 -41
10 -53 3 -21 -14 -82 -113 -82 -135 0 -9 14 -30 30 -47 17 -18 30 -36 30 -42
0 -6 -14 -24 -30 -42 -17 -17 -30 -38 -30 -47 0 -22 61 -121 82 -135 12 -7 27
-7 53 3 44 16 62 5 71 -45 8 -44 28 -54 104 -54 76 0 96 10 104 54 9 50 27 61
71 45 26 -10 41 -10 53 -3 21 14 82 113 82 135 0 9 -13 30 -30 47 -16 18 -30
38 -30 45 0 8 14 26 30 40 38 34 38 49 -3 116 -42 70 -56 79 -102 62 -44 -16
-62 -5 -71 45 -3 19 -15 39 -25 44 -23 13 -139 12 -160 0z m139 -71 c6 -54 70
-86 128 -66 18 6 26 1 47 -35 l25 -43 -26 -28 c-37 -38 -37 -96 0 -134 l26
-28 -25 -43 c-21 -36 -29 -41 -47 -35 -58 20 -122 -12 -128 -66 -3 -25 -6 -26
-58 -26 -52 0 -55 1 -58 26 -6 54 -70 86 -128 66 -18 -6 -26 -1 -47 35 l-25
43 26 28 c37 38 37 96 0 134 l-26 28 25 43 c21 36 29 41 47 35 57 -20 126 14
126 62 0 32 9 36 65 33 46 -3 50 -5 53 -29z"/>
<path d="M258 424 c-77 -41 -75 -169 2 -209 84 -43 180 13 180 105 0 92 -99
149 -182 104z m112 -54 c11 -11 20 -33 20 -50 0 -61 -77 -93 -120 -50 -43 43
-11 120 50 120 17 0 39 -9 50 -20z"/>
</g>
</svg>
