<?xml version="1.0" standalone="no"?>
<!DOCTYPE svg PUBLIC "-//W3C//DTD SVG 20010904//EN"
 "http://www.w3.org/TR/2001/REC-SVG-20010904/DTD/svg10.dtd">
<svg version="1.0" xmlns="http://www.w3.org/2000/svg"
 width="64.000000pt" height="64.000000pt" viewBox="0 0 64.000000 64.000000"
 preserveAspectRatio="xMidYMid meet">

<g transform="translate(0.000000,64.000000) scale(0.100000,-0.100000)"
fill="#000000" stroke="none">
<path d="M299 614 c-7 -8 -29 -52 -49 -97 l-36 -82 -98 -10 c-141 -14 -145
-25 -43 -119 l78 -72 -22 -97 c-21 -90 -21 -99 -6 -114 15 -15 23 -12 106 36
l91 52 91 -52 c83 -48 91 -51 106 -36 15 15 15 24 -6 113 l-22 98 75 69 c108
97 103 111 -44 124 l-94 8 -36 82 c-50 113 -65 129 -91 97z m55 -117 c36 -89
54 -107 115 -108 25 0 63 -3 83 -7 l37 -7 -71 -60 c-79 -67 -77 -61 -44 -197
l14 -57 -51 30 c-108 63 -113 65 -149 46 -18 -9 -56 -30 -85 -47 l-51 -31 14
58 c33 139 35 132 -44 199 l-71 59 37 7 c20 4 58 7 83 7 61 1 79 19 115 108
16 40 31 73 34 73 3 0 18 -33 34 -73z"/>
</g>
</svg>
